# AST/ASF file generated using VICON BodyLanguage
# -----------------------------------------------
:version 1.10
:name VICON
:units
  mass 1.0
  length 0.45
  angle deg
:documentation
   .ast/.asf automatically generated from VICON data using
   VICON BodyBuilder and BodyLanguage model FoxedUp or BRILLIANT.MOD
:root
   order TX TY TZ RX RY RZ
   axis XYZ
   position 0 0 0  
   orientation 0 0 0 
:bonedata
  begin
     id 1 
     name lhipjoint
     direction 0.621036 -0.695554 0.361275 
     length 2.46325 
     axis 0 0 0  XYZ
  end
  begin
     id 2 
     name lfemur
     direction 0.34202 -0.939693 0  
     length 6.54784  
     axis 0 0 20  XYZ
    dof rx ry rz
    limits (-160.0 20.0)
           (-70.0 70.0)
           (-60.0 70.0)
  end
  begin
     id 3 
     name ltibia
     direction 0.34202 -0.939693 0   
     length 7.84737   
     axis 0 0 20   XYZ
    dof rx
    limits (-10.0 170.0)
  end
  begin
     id 4 
     name lfoot
     direction 0.0790693 -0.217241 0.97291   
     length 2.59747   
     axis -90 7.62852e-016 20   XYZ
    dof rx rz
    limits (-45.0 90.0)
           (-70.0 20.0)
  end
  begin
     id 5 
     name ltoes
     direction 1.53572e-011 -4.21898e-011 1   
     length 1.29919   
     axis -90 7.62852e-016 20   XYZ
    dof rx
    limits (-90.0 20.0)
  end
  begin
     id 6 
     name rhipjoint
     direction -0.602353 -0.708375 0.367935   
     length 2.41867  
     axis 0 0 0  XYZ 
  end
  begin
     id 7 
     name rfemur
     direction -0.34202 -0.939693 0   
     length 6.92065   
     axis 0 0 -20   XYZ
    dof rx ry rz
    limits (-160.0 20.0)
           (-70.0 70.0)
           (-70.0 60.0)
  end
  begin
     id 8 
     name rtibia
     direction -0.34202 -0.939693 0   
     length 7.88883   
     axis 0 0 -20   XYZ
    dof rx
    limits (-10.0 170.0)
 end
 begin
     id 9 
     name rfoot
     direction -0.0768692 -0.211196 0.974416   
     length 2.43714  
     axis -90 -7.62852e-016 -20   XYZ
    dof rx rz
    limits (-45.0 90.0)
           (-20.0 70.0)
  end
  begin
     id 10 
     name rtoes
     direction -1.53575e-011 -4.21933e-011 1   
     length 1.22113   
     axis -90 -7.62852e-016 -20   XYZ
    dof rx
    limits (-90.0 20.0)
  end
  begin
     id 11 
     name lowerback
     direction 0.0197937 0.98943 -0.143655   
     length 2.16931   
     axis 0 0 0   XYZ
    dof rx ry rz
    limits (-20.0 45.0)
           (-30.0 30.0)
           (-30.0 30.0)
  end
  begin
     id 12 
     name upperback
     direction -0.00183968 0.999975 0.00684288   
     length 2.17221   
     axis 0 0 0   XYZ
    dof rx ry rz
    limits (-20.0 45.0)
           (-30.0 30.0)
           (-30.0 30.0)
  end
  begin
     id 13 
     name thorax
     direction -0.00950244 0.997208 0.0740685   
     length 2.22549   
     axis 0 0 0   XYZ
    dof rx ry rz
    limits (-20.0 45.0)
           (-30.0 30.0)
           (-30.0 30.0)
  end
  begin
     id 14 
     name lowerneck
     direction 0.0218238 0.996215 0.0841425   
     length 1.77269   
     axis 0 0 0   XYZ
    dof rx ry rz
    limits (-20.0 45.0)
           (-30.0 30.0)
           (-30.0 30.0)
  end
  begin
     id 15 
     name upperneck
     direction -0.00430652 0.994214 -0.107332   
     length 1.76534   
     axis 0 0 0   XYZ
    dof rx ry rz
    limits (-20.0 45.0)
           (-30.0 30.0)
           (-30.0 30.0)
  end
  begin
     id 16
     name head
     direction -0.00328946 0.998959 -0.0454998  
     length 1.82634  
     axis 0 0 0   XYZ
    dof rx ry rz
    limits (-20.0 45.0)
           (-30.0 30.0)
           (-30.0 30.0)
  end
  begin
     id 17 
     name lclavicle
     direction 0.970962 0.239191 0.00450212  
     length 3.84872  
     axis 0 0 0   XYZ
    dof ry rz
    limits (-20.0 10.0)
           (0.0 20.0)
  end
  begin
     id 18 
     name lhumerus
     direction 1 -4.48966e-011 5.74696e-028   
     length 5.22771   
     axis 180 -30 -90   XYZ
    dof rx ry rz
    limits (-60.0 90.0)
           (-90.0 90.0)
           (-90.0 90.0)
  end
  begin
     id 19
     name lradius
     direction 1 -4.4896e-011 4.25109e-027   
     length 3.45251   
     axis 180 -30 -90   XYZ
    dof rx
    limits (-10.0 170.0)
  end
  begin
     id 20
     name lwrist
     direction 1 -4.48971e-011 1.15382e-027   
     length 1.72626   
     axis -5.52449e-016 90 90   XYZ
    dof ry
    limits (-180.0 0.0)
 end
  begin
     id 21 
     name lhand
     direction 1 -4.49034e-011 2.30765e-027   
     length 0.552119   
     axis -1.47248e-015 90 90   XYZ
    dof rx rz
    limits (-90.0 90.0)
           (-45.0 45.0)
  end
  begin
     id 22 
     name lfingers
     direction 1 -4.48951e-011 4.61529e-027   
     length 0.445133   
     axis -2.94495e-015 90 90   XYZ
    dof rx
    limits (0.0 90.0)
  end
  begin
     id 23
     name lthumb
     direction 0.707107 -6.34991e-011 0.707107   
     length 0.639124   
     axis -90 45 2.85299e-015   XYZ
    dof rx rz
    limits (-45.0 45.0)
           (-45.0 45.0)
  end
  begin
     id 24 
     name rclavicle
     direction -0.97424 0.222511 -0.0366699   
     length 3.73439  
     axis 0 0 0   XYZ 
    dof ry rz
    limits (-10.0 20.0)
           (-20.0 0.0)
  end
  begin
     id 25 
     name rhumerus
     direction -1 -4.48956e-011 -4.97258e-028  
     length 5.2398   
     axis 180 30 90   XYZ
    dof rx ry rz
    limits (-90.0 60.0)
           (-90.0 90.0)
           (-90.0 90.0)
  end
  begin
     id 26 
     name rradius
     direction -1 -4.4897e-011 -1.72611e-027   
     length 3.48042   
     axis 180 30 90   XYZ
    dof rx
    limits (-10.0 170.0)
  end
  begin
     id 27 
     name rwrist
     direction -1 -4.48976e-011 1.15382e-027   
     length 1.74021   
     axis -5.52449e-016 -90 -90   XYZ
    dof ry
    limits (-180.0 0.0)
  end
  begin
     id 28
     name rhand
     direction -1 -4.48963e-011 2.30765e-027   
     length 0.618713   
     axis -1.47248e-015 -90 -90   XYZ
    dof rx rz
    limits (-90.0 90.0)
           (-45.0 45.0)
  end
  begin
     id 29
     name rfingers
     direction -1 -4.4888e-011 4.61529e-027   
     length 0.498823   
     axis -2.94495e-015 -90 -90   XYZ
    dof rx
    limits (0.0 90.0)
  end
  begin
     id 30
     name rthumb
     direction -0.707107 -6.34968e-011 0.707107   
     length 0.716213   
     axis -90 -45 -2.85299e-015   XYZ
    dof rx rz
    limits (-45.0 45.0)
           (-45.0 45.0)
  end
:hierarchy
  begin
    root lhipjoint rhipjoint lowerback
    lhipjoint lfemur
    lfemur ltibia
    ltibia lfoot
    lfoot ltoes
    rhipjoint rfemur
    rfemur rtibia
    rtibia rfoot
    rfoot rtoes
    lowerback upperback
    upperback thorax
    thorax lowerneck lclavicle rclavicle
    lowerneck upperneck
    upperneck head
    lclavicle lhumerus
    lhumerus lradius
    lradius lwrist
    lwrist lhand lthumb
    lhand lfingers
    rclavicle rhumerus
    rhumerus rradius
    rradius rwrist
    rwrist rhand rthumb
    rhand rfingers
  end

#!OML:ASF G:\JayActor3\Patient Classification 1\Patient 1\Session 5\male.ASF
:FULLY-SPECIFIED
:DEGREES
292
root -31.623 17.8337 -7.26881 -25.3107 -82.0376 42.9481
lowerback 23.3863 -2.28162 -1.90953
upperback 7.23952 -3.94107 -1.37362
thorax -5.03618 -2.10273 0.683238
lowerneck 7.18494 0.456439 2.37163
upperneck -25.0916 1.07527 2.62254
head -9.03379 -0.28136 0.431878
rclavicle 9.323e-014 0
rhumerus -30.5891 -4.89803 -87.2918
rradius 34.9433
rwrist -2.48273
rhand -21.3934 -8.93274
rfingers 7.12502
rthumb 4.99447 -38.8539
lclavicle 9.323e-014 0
lhumerus -29.0173 3.49327 82.508
lradius 30.292
lwrist 17.1463
lhand -21.0561 9.78655
lfingers 7.12502
lthumb 5.32022 39.6998
rfemur -47.3502 -0.19579 12.4019
rtibia 28.7455
rfoot 7.49574 -23.492
rtoes 16.7758
lfemur -24.135 8.83414 -25.4244
ltibia 32.0382
lfoot 4.16996 -2.52
ltoes -28.4816
293
root -31.5098 17.8382 -7.22667 -27.101 -82.2278 44.4836
lowerback 23.5601 -2.22659 -2.03477
upperback 7.31868 -3.91526 -1.4122
thorax -5.03233 -2.09516 0.71184
lowerneck 7.18226 0.481486 2.38089
upperneck -25.1474 1.10905 2.62117
head -9.05284 -0.269521 0.427271
rclavicle -5.96354e-016 3.29983e-014
rhumerus -30.5387 -4.91558 -87.363
rradius 34.9308
rwrist -2.51263
rhand -21.3656 -8.97426
rfingers 7.12502
rthumb 5.0213 -38.8948
lclavicle -5.96354e-016 3.29983e-014
lhumerus -28.8085 3.48272 82.5132
lradius 30.3315
lwrist 17.2042
lhand -21.1358 9.79956
lfingers 7.12502
lthumb 5.2432 39.7147
rfemur -47.3104 0.14265 11.8907
rtibia 28.2428
rfoot 7.83811 -24.3462
rtoes 18.2228
lfemur -24.4369 9.29947 -25.8482
ltibia 32.2725
lfoot 4.40249 -2.49392
ltoes -28.2016
294
root -31.3966 17.8458 -7.18353 -29.0146 -82.4783 46.1864
lowerback 23.7057 -2.15506 -2.14714
upperback 7.38432 -3.86413 -1.44698
thorax -5.03006 -2.07493 0.729405
lowerneck 7.21026 0.510999 2.40806
upperneck -25.2268 1.14837 2.59629
head -9.08572 -0.255103 0.4112
rclavicle 1.5704e-014 7.95139e-015
rhumerus -30.5033 -4.89651 -87.4411
rradius 34.9264
rwrist -2.50895
rhand -21.3304 -9.00971
rfingers 7.12502
rthumb 5.05532 -38.9294
lclavicle 1.5704e-014 7.95139e-015
lhumerus -28.6278 3.47138 82.5173
lradius 30.3887
lwrist 17.263
lhand -21.2061 9.80206
lfingers 7.12502
lthumb 5.17537 39.7189
rfemur -47.2695 0.496746 11.4028
rtibia 27.6202
rfoot 8.18157 -25.3006
rtoes 19.9269
lfemur -24.6982 9.73109 -26.203
ltibia 32.3645
lfoot 4.61427 -2.56156
ltoes -27.9639
295
root -31.2841 17.8556 -7.13962 -31.0974 -82.7821 48.1084
lowerback 23.808 -2.06897 -2.2461
upperback 7.43403 -3.78893 -1.47686
thorax -5.02453 -2.04252 0.736455
lowerneck 7.26859 0.540208 2.44276
upperneck -25.3184 1.18786 2.56021
head -9.12852 -0.240459 0.390005
rclavicle 2.50469e-014 -1.21259e-014
rhumerus -30.4848 -4.83986 -87.5229
rradius 34.9278
rwrist -2.47425
rhand -21.2951 -9.02839
rfingers 7.12502
rthumb 5.08942 -38.9473
lclavicle 2.50469e-014 -1.21259e-014
lhumerus -28.4826 3.4578 82.5232
lradius 30.4592
lwrist 17.3123
lhand -21.2788 9.78981
lfingers 7.12502
lthumb 5.10512 39.7083
rfemur -47.2344 0.852982 10.9432
rtibia 26.8933
rfoot 8.49537 -26.3535
rtoes 21.8413
lfemur -24.9073 10.1258 -26.4901
ltibia 32.3028
lfoot 4.77494 -2.71763
ltoes -27.776
296
root -31.1729 17.8661 -7.09502 -33.4327 -83.1259 50.3356
lowerback 23.857 -1.97324 -2.33833
upperback 7.4689 -3.69688 -1.50237
thorax -5.00923 -2.0015 0.737678
lowerneck 7.33403 0.579422 2.48192
upperneck -25.3998 1.23762 2.5005
head -9.16888 -0.218247 0.358696
rclavicle 1.78906e-015 7.15625e-015
rhumerus -30.4693 -4.73866 -87.606
rradius 34.9266
rwrist -2.41247
rhand -21.2325 -9.03607
rfingers 7.12502
rthumb 5.14982 -38.9535
lclavicle 1.78906e-015 7.15625e-015
lhumerus -28.3727 3.44694 82.5299
lradius 30.5329
lwrist 17.3479
lhand -21.3564 9.76184
lfingers 7.12502
lthumb 5.03023 39.6821
rfemur -47.2148 1.19278 10.5127
rtibia 26.0946
rfoot 8.72819 -27.4786
rtoes 23.9331
lfemur -25.0609 10.4867 -26.7241
ltibia 32.0906
lfoot 4.86036 -2.95871
ltoes -27.7135
297
root -31.0634 17.8756 -7.04997 -36.1001 -83.4927 52.9466
lowerback 23.8584 -1.87185 -2.42173
upperback 7.48579 -3.5926 -1.52662
thorax -4.9906 -1.95378 0.730299
lowerneck 7.38148 0.621672 2.52156
upperneck -25.4447 1.28802 2.42696
head -9.19281 -0.192646 0.322064
rclavicle 2.56432e-014 4.07509e-014
rhumerus -30.4616 -4.61287 -87.687
rradius 34.9228
rwrist -2.31931
rhand -21.1507 -9.03146
rfingers 7.12502
rthumb 5.22885 -38.947
lclavicle 2.56432e-014 4.07509e-014
lhumerus -28.2991 3.42637 82.5367
lradius 30.6027
lwrist 17.3788
lhand -21.4382 9.73091
lfingers 7.12502
lthumb 4.95127 39.6531
rfemur -47.2218 1.51766 10.0982
rtibia 25.2566
rfoot 8.89687 -28.6214
rtoes 25.9824
lfemur -25.167 10.8227 -26.9236
ltibia 31.751
lfoot 4.87472 -3.22171
ltoes -27.6317
298
root -30.9555 17.8832 -7.00471 -39.1744 -83.8623 56.0089
lowerback 23.8052 -1.77101 -2.50705
upperback 7.49232 -3.48617 -1.54817
thorax -4.95597 -1.90472 0.724266
lowerneck 7.40537 0.674933 2.55304
upperneck -25.4476 1.34857 2.33898
head -9.19727 -0.158037 0.280424
rclavicle -5.96354e-015 1.92821e-014
rhumerus -30.4451 -4.46786 -87.7631
rradius 34.9067
rwrist -2.20755
rhand -21.0466 -9.01005
rfingers 7.12502
rthumb 5.3294 -38.923
lclavicle -5.96354e-015 1.92821e-014
lhumerus -28.2516 3.4106 82.5402
lradius 30.6547
lwrist 17.4058
lhand -21.4985 9.71064
lfingers 7.12502
lthumb 4.89299 39.6341
rfemur -47.2608 1.81689 9.69772
rtibia 24.4354
rfoot 9.08452 -29.6729
rtoes 27.71
lfemur -25.2398 11.1532 -27.1142
ltibia 31.315
lfoot 4.81634 -3.49865
ltoes -27.6124
299
root -30.8493 17.8883 -6.95945 -42.659 -84.2184 59.5171
lowerback 23.715 -1.67465 -2.58163
upperback 7.48786 -3.38038 -1.56825
thorax -4.91544 -1.8554 0.712835
lowerneck 7.39598 0.731394 2.58722
upperneck -25.4021 1.40697 2.22655
head -9.17804 -0.119933 0.229789
rclavicle 2.80286e-014 -1.70955e-014
rhumerus -30.4247 -4.33276 -87.8274
rradius 34.884
rwrist -2.0786
rhand -20.9206 -8.99377
rfingers 7.12502
rthumb 5.45097 -38.9037
lclavicle 2.80286e-014 -1.70955e-014
lhumerus -28.226 3.39311 82.5395
lradius 30.6838
lwrist 17.432
lhand -21.5265 9.69888
lfingers 7.12502
lthumb 4.866 39.623
rfemur -47.3385 2.09265 9.30867
rtibia 23.6929
rfoot 9.30955 -30.5291
rtoes 28.9369
lfemur -25.2992 11.4961 -27.3145
ltibia 30.8216
lfoot 4.67398 -3.73039
ltoes -27.6419
300
root -30.7442 17.8915 -6.91499 -46.5303 -84.5461 63.4435
lowerback 23.6025 -1.58677 -2.64852
upperback 7.46507 -3.28126 -1.58755
thorax -4.88404 -1.80824 0.699504
lowerneck 7.36074 0.795456 2.61671
upperneck -25.3049 1.47127 2.09887
head -9.13551 -0.0746304 0.173865
rclavicle 3.08116e-014 2.64384e-014
rhumerus -30.4191 -4.22845 -87.8808
rradius 34.8599
rwrist -1.94308
rhand -20.7883 -8.98341
rfingers 7.12502
rthumb 5.57877 -38.89
lclavicle 3.08116e-014 2.64384e-014
lhumerus -28.2331 3.37646 82.5258
lradius 30.6884
lwrist 17.4592
lhand -21.5087 9.70548
lfingers 7.12502
lthumb 4.88315 39.6292
rfemur -47.4649 2.33559 8.94485
rtibia 23.1075
rfoot 9.53755 -31.0273
rtoes 29.5298
lfemur -25.374 11.8682 -27.5414
ltibia 30.3061
lfoot 4.4927 -3.90802
ltoes -27.6796
